<svg xmlns="http://www.w3.org/2000/svg" viewBox="0 0 24 24" fill="none" stroke="currentColor" stroke-width="2" stroke-linecap="round" stroke-linejoin="round">
  <path d="M12 2C10.5 2 9 3.5 9 5C9 6.5 10.5 8 12 8C13.5 8 15 6.5 15 5C15 3.5 13.5 2 12 2Z" />
  <path d="M12 8C9 8 6 9 6 12V16C6 19 9 20 12 20C15 20 18 19 18 16V12C18 9 15 8 12 8Z" />
  <path d="M12 2C10.5 2 9 3.5 9 5C9 6.5 10.5 8 12 8C13.5 8 15 6.5 15 5C15 3.5 13.5 2 12 2Z" />
  <path d="M12 8C9 8 6 9 6 12V16C6 19 9 20 12 20C15 20 18 19 18 16V12C18 9 15 8 12 8Z" />
</svg>