<svg xmlns="http://www.w3.org/2000/svg" viewBox="0 0 24 24" fill="none" stroke="currentColor" stroke-width="2" stroke-linecap="round" stroke-linejoin="round">
  <path d="M12 2C10.5 2 9 3.5 9 5C9 6.5 10.5 8 12 8C13.5 8 15 6.5 15 5C15 3.5 13.5 2 12 2Z" />
  <path d="M12 8C10.5 8 9 9.5 9 11C9 12.5 10.5 14 12 14C13.5 14 15 12.5 15 11C15 9.5 13.5 8 12 8Z" />
  <path d="M12 14C10.5 14 9 15.5 9 17C9 18.5 10.5 20 12 20C13.5 20 15 18.5 15 17C15 15.5 13.5 14 12 14Z" />
  <path d="M2 12C2 10.5 3.5 9 5 9C6.5 9 8 10.5 8 12C8 13.5 6.5 15 5 15C3.5 15 2 13.5 2 12Z" />
  <path d="M16 12C16 10.5 17.5 9 19 9C20.5 9 22 10.5 22 12C22 13.5 20.5 15 19 15C17.5 15 16 13.5 16 12Z" />
  <path d="M12 2C10.5 2 9 3.5 9 5C9 6.5 10.5 8 12 8C13.5 8 15 6.5 15 5C15 3.5 13.5 2 12 2Z" />
</svg>