<svg xmlns="http://www.w3.org/2000/svg" viewBox="0 0 800 600">
  <defs>
    <linearGradient id="grad1" x1="0%" y1="0%" x2="100%" y2="100%">
      <stop offset="0%" style="stop-color:#ff7e5f;stop-opacity:1" />
      <stop offset="100%" style="stop-color:#feb47b;stop-opacity:1" />
    </linearGradient>
  </defs>
  <g id="couple" fill="url(#grad1)">
    <path d="M400 100c-50 0-100 50-100 100s50 100 100 100 100-50 100-100-50-100-100-100z" />
    <path d="M300 300c-50 0-100 50-100 100s50 100 100 100 100-50 100-100-50-100-100-100z" />
    <path d="M500 300c-50 0-100 50-100 100s50 100 100 100 100-50 100-100-50-100-100-100z" />
    <path d="M400 500c-50 0-100 50-100 100s50 100 100 100 100-50 100-100-50-100-100-100z" />
  </g>
</svg>